<svg width="19" height="22" viewBox="0 0 19 22" fill="none" xmlns="http://www.w3.org/2000/svg">
<g filter="url(#filter0_d_1_325)">
<path d="M11.0642 11.2929L10.4906 10.8098L11.0642 11.2929ZM7.9358 11.2929L7.36219 11.7761L7.9358 11.2929ZM9.5 12.5V11.75V12.5ZM13.25 6.00814C13.25 6.53708 12.9413 7.31922 12.3783 8.24576C11.8351 9.13985 11.1284 10.0525 10.4906 10.8098L11.6378 11.7761C12.2992 10.9909 13.0604 10.0119 13.6603 9.02462C14.2404 8.06974 14.75 6.98069 14.75 6.00814H13.25ZM8.50942 10.8098C7.87158 10.0525 7.16488 9.13985 6.62166 8.24576C6.05872 7.31922 5.75 6.53708 5.75 6.00814H4.25C4.25 6.98069 4.75956 8.06974 5.33972 9.02462C5.93959 10.0119 6.70079 10.9909 7.36219 11.7761L8.50942 10.8098ZM5.75 6.00814C5.75 3.9313 7.43021 2.25 9.5 2.25V0.75C6.59923 0.75 4.25 3.10543 4.25 6.00814H5.75ZM9.5 2.25C11.5698 2.25 13.25 3.9313 13.25 6.00814H14.75C14.75 3.10543 12.4008 0.75 9.5 0.75V2.25ZM10.4906 10.8098C10.1348 11.2322 9.92693 11.475 9.7489 11.6256C9.60499 11.7473 9.54881 11.75 9.5 11.75V13.25C9.99863 13.25 10.3856 13.0516 10.7175 12.7709C11.0153 12.5191 11.3158 12.1584 11.6378 11.7761L10.4906 10.8098ZM7.36219 11.7761C7.68422 12.1584 7.98474 12.5191 8.2825 12.7709C8.61437 13.0516 9.00137 13.25 9.5 13.25V11.75C9.45119 11.75 9.39501 11.7473 9.2511 11.6256C9.07307 11.475 8.86523 11.2322 8.50942 10.8098L7.36219 11.7761ZM7.0625 6.21306C7.0625 7.54454 8.20523 8.53408 9.5 8.53408V7.03408C8.93081 7.03408 8.5625 6.61687 8.5625 6.21306H7.0625ZM9.5 8.53408C10.7948 8.53408 11.9375 7.54454 11.9375 6.21306H10.4375C10.4375 6.61687 10.0692 7.03408 9.5 7.03408V8.53408ZM11.9375 6.21306C11.9375 4.88158 10.7948 3.89204 9.5 3.89204V5.39204C10.0692 5.39204 10.4375 5.80924 10.4375 6.21306H11.9375ZM9.5 3.89204C8.20523 3.89204 7.0625 4.88158 7.0625 6.21306H8.5625C8.5625 5.80924 8.93081 5.39204 9.5 5.39204V3.89204Z" fill="#2D264B" fill-opacity="0.3"/>
</g>
<defs>
<filter id="filter0_d_1_325" x="0.25" y="0.75" width="18.5" height="20.5" filterUnits="userSpaceOnUse" color-interpolation-filters="sRGB">
<feFlood flood-opacity="0" result="BackgroundImageFix"/>
<feColorMatrix in="SourceAlpha" type="matrix" values="0 0 0 0 0 0 0 0 0 0 0 0 0 0 0 0 0 0 127 0" result="hardAlpha"/>
<feOffset dy="4"/>
<feGaussianBlur stdDeviation="2"/>
<feComposite in2="hardAlpha" operator="out"/>
<feColorMatrix type="matrix" values="0 0 0 0 0 0 0 0 0 0 0 0 0 0 0 0 0 0 0.25 0"/>
<feBlend mode="normal" in2="BackgroundImageFix" result="effect1_dropShadow_1_325"/>
<feBlend mode="normal" in="SourceGraphic" in2="effect1_dropShadow_1_325" result="shape"/>
</filter>
</defs>
</svg>
