<svg width="21" height="21" viewBox="0 0 21 21" fill="none" xmlns="http://www.w3.org/2000/svg">
<g filter="url(#filter0_d_103_71)">
<path d="M10.42 12.6667C10.7419 12.6663 11.0508 12.5394 11.28 12.3133L15.5533 8.03335C15.663 7.92432 15.7313 7.78056 15.7467 7.62668L16.3333 1.39335C16.3423 1.2957 16.3296 1.19728 16.2962 1.10509C16.2628 1.0129 16.2095 0.929223 16.14 0.860015C16.0708 0.790549 15.9871 0.737207 15.8949 0.703789C15.8027 0.670371 15.7043 0.657701 15.6067 0.666681L9.37332 1.25335C9.21944 1.26868 9.07568 1.33702 8.96665 1.44668L4.68665 5.72001C4.4599 5.94745 4.33256 6.25552 4.33256 6.57668C4.33256 6.89785 4.4599 7.20591 4.68665 7.43335L9.56665 12.3133C9.7934 12.539 10.1001 12.666 10.42 12.6667ZM14.42 7.26002L10.42 11.26L5.71999 6.56001L9.71999 2.56001L14.9267 2.07335L14.42 7.26002Z" fill="#EC441E"/>
</g>
<path d="M12 6C11.4477 6 11 5.55228 11 5C11 4.44772 11.4477 4 12 4C12.5523 4 13 4.44772 13 5C13 5.55228 12.5523 6 12 6Z" fill="#EC441E"/>
<defs>
<filter id="filter0_d_103_71" x="0.33255" y="0.663879" width="20.0036" height="20.0028" filterUnits="userSpaceOnUse" color-interpolation-filters="sRGB">
<feFlood flood-opacity="0" result="BackgroundImageFix"/>
<feColorMatrix in="SourceAlpha" type="matrix" values="0 0 0 0 0 0 0 0 0 0 0 0 0 0 0 0 0 0 127 0" result="hardAlpha"/>
<feOffset dy="4"/>
<feGaussianBlur stdDeviation="2"/>
<feComposite in2="hardAlpha" operator="out"/>
<feColorMatrix type="matrix" values="0 0 0 0 0 0 0 0 0 0 0 0 0 0 0 0 0 0 0.25 0"/>
<feBlend mode="normal" in2="BackgroundImageFix" result="effect1_dropShadow_103_71"/>
<feBlend mode="normal" in="SourceGraphic" in2="effect1_dropShadow_103_71" result="shape"/>
</filter>
</defs>
</svg>
