<svg width="20" height="22" viewBox="0 0 20 22" fill="none" xmlns="http://www.w3.org/2000/svg">
<g filter="url(#filter0_d_1_329)">
<path d="M6.14504 11.9748L6.58298 11.3659L6.58298 11.3659L6.14504 11.9748ZM5.53051 11.3664L6.13515 10.9227L6.13515 10.9227L5.53051 11.3664ZM14.4695 11.3664L15.0741 11.8101L14.4695 11.3664ZM13.855 11.9748L13.417 11.3659L13.855 11.9748ZM13.855 3.1252L13.417 3.73406L13.855 3.1252ZM14.4695 3.73359L13.8648 4.17733L13.8648 4.17733L14.4695 3.73359ZM6.14504 3.1252L6.58298 3.73406L6.58298 3.73406L6.14504 3.1252ZM5.53051 3.73359L6.13515 4.17733L6.13515 4.17733L5.53051 3.73359ZM14.0099 9.23386L13.8937 8.49291L13.8937 8.49291L14.0099 9.23386ZM11.7009 11.5198L10.9603 11.4013L10.9603 11.4013L11.7009 11.5198ZM8.33333 7.35C7.91912 7.35 7.58333 7.68579 7.58333 8.1C7.58333 8.51421 7.91912 8.85 8.33333 8.85V7.35ZM11.6667 8.85C12.0809 8.85 12.4167 8.51421 12.4167 8.1C12.4167 7.68579 12.0809 7.35 11.6667 7.35V8.85ZM10.9167 3.15C10.9167 3.56421 11.2525 3.9 11.6667 3.9C12.0809 3.9 12.4167 3.56421 12.4167 3.15H10.9167ZM12.4167 1.5C12.4167 1.08579 12.0809 0.75 11.6667 0.75C11.2525 0.75 10.9167 1.08579 10.9167 1.5H12.4167ZM7.58333 3.15C7.58333 3.56421 7.91912 3.9 8.33333 3.9C8.74755 3.9 9.08333 3.56421 9.08333 3.15H7.58333ZM9.08333 1.5C9.08333 1.08579 8.74755 0.75 8.33333 0.75C7.91912 0.75 7.58333 1.08579 7.58333 1.5H9.08333ZM14.9839 9.2L15.7335 9.22594L14.9839 9.2ZM10 11.75C8.94187 11.75 8.20791 11.749 7.64513 11.6886C7.09595 11.6297 6.79923 11.5215 6.58298 11.3659L5.7071 12.5837C6.22103 12.9533 6.8102 13.1077 7.48516 13.1801C8.14652 13.251 8.97495 13.25 10 13.25V11.75ZM4.25 7.55C4.25 8.5643 4.24895 9.38588 4.32076 10.0421C4.39416 10.7128 4.55092 11.2992 4.92586 11.8101L6.13515 10.9227C5.97959 10.7107 5.87109 10.4201 5.81186 9.87892C5.75105 9.32324 5.75 8.59805 5.75 7.55H4.25ZM6.58298 11.3659C6.41085 11.2421 6.25978 11.0925 6.13515 10.9227L4.92586 11.8101C5.1439 12.1073 5.4076 12.3682 5.7071 12.5837L6.58298 11.3659ZM13.8648 10.9227C13.7402 11.0925 13.5892 11.2421 13.417 11.3659L14.2929 12.5837C14.5924 12.3682 14.8561 12.1073 15.0741 11.8101L13.8648 10.9227ZM13.417 3.73406C13.5892 3.85787 13.7402 4.00752 13.8648 4.17733L15.0741 3.28985C14.8561 2.99274 14.5924 2.73177 14.2929 2.51634L13.417 3.73406ZM5.7071 2.51634C5.4076 2.73177 5.1439 2.99275 4.92586 3.28985L6.13515 4.17733C6.25978 4.00751 6.41085 3.85787 6.58298 3.73406L5.7071 2.51634ZM13.8937 8.49291C12.3884 8.72895 11.2005 9.89956 10.9603 11.4013L12.4414 11.6383C12.5777 10.7866 13.2542 10.1115 14.1261 9.9748L13.8937 8.49291ZM8.33333 8.85H11.6667V7.35H8.33333V8.85ZM14.9839 8.45C14.5057 8.45 14.1794 8.44811 13.8937 8.49291L14.1261 9.9748C14.2677 9.9526 14.4513 9.95 14.9839 9.95L14.9839 8.45ZM14.25 7.55C14.25 8.1971 14.2499 8.72541 14.2344 9.17406L15.7335 9.22594C15.7501 8.74581 15.75 8.18872 15.75 7.55H14.25ZM14.2344 9.17406C14.1992 10.1895 14.0834 10.6248 13.8648 10.9227L15.0741 11.8101C15.5858 11.1129 15.6977 10.2611 15.7335 9.22594L14.2344 9.17406ZM12.4167 12.4841C12.4167 11.956 12.4194 11.7764 12.4414 11.6383L10.9603 11.4013C10.9147 11.6863 10.9167 12.0115 10.9167 12.4841L12.4167 12.4841ZM10 13.25C10.6453 13.25 11.2076 13.2501 11.6921 13.2337L11.6412 11.7345C11.1876 11.7499 10.6535 11.75 10 11.75V13.25ZM11.6921 13.2337C12.7364 13.1982 13.5919 13.0878 14.2929 12.5837L13.417 11.3659C13.1129 11.5847 12.6682 11.6997 11.6412 11.7345L11.6921 13.2337ZM5.75 7.55C5.75 6.9029 5.7501 6.37459 5.76562 5.92594L4.26652 5.87406C4.2499 6.35419 4.25 6.91128 4.25 7.55H5.75ZM5.76562 5.92594C5.80076 4.91049 5.91658 4.47516 6.13515 4.17733L4.92586 3.28985C4.41418 3.98708 4.30234 4.83891 4.26652 5.87406L5.76562 5.92594ZM5.01607 6.65H14.9839V5.15H5.01607V6.65ZM15.75 7.55C15.75 6.91128 15.7501 6.35419 15.7335 5.87406L14.2344 5.92594C14.2499 6.37459 14.25 6.9029 14.25 7.55H15.75ZM15.7335 5.87406C15.6977 4.83891 15.5858 3.98708 15.0741 3.28985L13.8648 4.17733C14.0834 4.47516 14.1992 4.91049 14.2344 5.92594L15.7335 5.87406ZM12.4167 3.15V2.61591H10.9167V3.15H12.4167ZM12.4167 2.61591V1.5H10.9167V2.61591H12.4167ZM10 3.35C10.6535 3.35 11.1876 3.35009 11.6412 3.36548L11.6921 1.86634C11.2076 1.84991 10.6453 1.85 10 1.85V3.35ZM11.6412 3.36548C12.6682 3.40031 13.1129 3.51528 13.417 3.73406L14.2929 2.51634C13.5919 2.01216 12.7364 1.90176 11.6921 1.86634L11.6412 3.36548ZM9.08333 3.15V2.61591H7.58333V3.15H9.08333ZM9.08333 2.61591V1.5H7.58333V2.61591H9.08333ZM10 1.85C9.35471 1.85 8.79241 1.84991 8.30791 1.86634L8.35876 3.36548C8.81242 3.35009 9.34649 3.35 10 3.35V1.85ZM8.30791 1.86634C7.26357 1.90176 6.40806 2.01216 5.7071 2.51634L6.58298 3.73406C6.88714 3.51528 7.33178 3.40031 8.35876 3.36548L8.30791 1.86634Z" fill="#2D264B" fill-opacity="0.3"/>
</g>
<defs>
<filter id="filter0_d_1_329" x="0.25" y="0.75" width="19.5" height="20.5" filterUnits="userSpaceOnUse" color-interpolation-filters="sRGB">
<feFlood flood-opacity="0" result="BackgroundImageFix"/>
<feColorMatrix in="SourceAlpha" type="matrix" values="0 0 0 0 0 0 0 0 0 0 0 0 0 0 0 0 0 0 127 0" result="hardAlpha"/>
<feOffset dy="4"/>
<feGaussianBlur stdDeviation="2"/>
<feComposite in2="hardAlpha" operator="out"/>
<feColorMatrix type="matrix" values="0 0 0 0 0 0 0 0 0 0 0 0 0 0 0 0 0 0 0.25 0"/>
<feBlend mode="normal" in2="BackgroundImageFix" result="effect1_dropShadow_1_329"/>
<feBlend mode="normal" in="SourceGraphic" in2="effect1_dropShadow_1_329" result="shape"/>
</filter>
</defs>
</svg>
